<svg id="_x31__px" height="512" viewBox="0 0 24 24" width="512" xmlns="http://www.w3.org/2000/svg" fill="#fff"><g><path d="m8.5 24h-8c-.276 0-.5-.224-.5-.5s.224-.5.5-.5h8c.276 0 .5.224.5.5s-.224.5-.5.5z"/></g><g><path d="m7.5 24h-6c-.276 0-.5-.224-.5-.5v-5c0-1.93 1.57-3.5 3.5-3.5s3.5 1.57 3.5 3.5v5c0 .276-.224.5-.5.5zm-5.5-1h5v-4.5c0-1.378-1.121-2.5-2.5-2.5s-2.5 1.122-2.5 2.5z"/></g><g><path d="m4.5 20c-.827 0-1.5-.673-1.5-1.5s.673-1.5 1.5-1.5 1.5.673 1.5 1.5-.673 1.5-1.5 1.5zm0-2c-.275 0-.5.224-.5.5s.225.5.5.5.5-.224.5-.5-.225-.5-.5-.5z"/></g><g><path d="m4.5 16c-.276 0-.5-.224-.5-.5v-9c0-.276.224-.5.5-.5s.5.224.5.5v9c0 .276-.224.5-.5.5z"/></g><g><path d="m5.5 7h-2c-.827 0-1.5-.673-1.5-1.5v-2c0-.827.673-1.5 1.5-1.5h2c.827 0 1.5.673 1.5 1.5v2c0 .827-.673 1.5-1.5 1.5zm-2-4c-.275 0-.5.224-.5.5v2c0 .276.225.5.5.5h2c.275 0 .5-.224.5-.5v-2c0-.276-.225-.5-.5-.5z"/></g><g><path d="m14.5 5h-8c-.276 0-.5-.224-.5-.5s.224-.5.5-.5h8c.276 0 .5.224.5.5s-.224.5-.5.5z"/></g><g><path d="m19.5 7h-4c-.827 0-1.5-.673-1.5-1.5v-2c0-.827.673-1.5 1.5-1.5h4c.827 0 1.5.673 1.5 1.5v2c0 .827-.673 1.5-1.5 1.5zm-4-4c-.275 0-.5.224-.5.5v2c0 .276.225.5.5.5h4c.275 0 .5-.224.5-.5v-2c0-.276-.225-.5-.5-.5z"/></g><g><path d="m23.5 5h-3c-.276 0-.5-.224-.5-.5s.224-.5.5-.5h3c.276 0 .5.224.5.5s-.224.5-.5.5z"/></g><g><path d="m18.5 9h-2c-.827 0-1.5-.673-1.5-1.5v-1c0-.276.224-.5.5-.5h4c.276 0 .5.224.5.5v1c0 .827-.673 1.5-1.5 1.5zm-2.5-2v.5c0 .276.225.5.5.5h2c.275 0 .5-.224.5-.5v-.5z"/></g><g><path d="m17.5 11c-.276 0-.5-.224-.5-.5v-2c0-.276.224-.5.5-.5s.5.224.5.5v2c0 .276-.224.5-.5.5z"/></g><g><path d="m21.5 24h-8c-1.379 0-2.5-1.122-2.5-2.5v-6c0-1.378 1.121-2.5 2.5-2.5h8c1.379 0 2.5 1.122 2.5 2.5v6c0 1.378-1.121 2.5-2.5 2.5zm-8-10c-.827 0-1.5.673-1.5 1.5v6c0 .827.673 1.5 1.5 1.5h8c.827 0 1.5-.673 1.5-1.5v-6c0-.827-.673-1.5-1.5-1.5z"/></g><g><path d="m15.5 22h-2c-.276 0-.5-.224-.5-.5s.224-.5.5-.5h2c.275 0 .5-.224.5-.5v-1c0-.276-.225-.5-.5-.5h-2c-.276 0-.5-.224-.5-.5s.224-.5.5-.5h2c.827 0 1.5.673 1.5 1.5v1c0 .827-.673 1.5-1.5 1.5z"/></g><g><path d="m15.5 19h-2c-.276 0-.5-.224-.5-.5s.224-.5.5-.5h2c.275 0 .5-.224.5-.5v-1c0-.276-.225-.5-.5-.5h-2c-.276 0-.5-.224-.5-.5s.224-.5.5-.5h2c.827 0 1.5.673 1.5 1.5v1c0 .827-.673 1.5-1.5 1.5z"/></g><g><path d="m20.5 22h-2c-.276 0-.5-.224-.5-.5v-6c0-.276.224-.5.5-.5h2c.827 0 1.5.673 1.5 1.5v4c0 .827-.673 1.5-1.5 1.5zm-1.5-1h1.5c.275 0 .5-.224.5-.5v-4c0-.276-.225-.5-.5-.5h-1.5z"/></g></svg>