<svg id="Capa_1" fill="#fff" enable-background="new 0 0 512 512" height="512" viewBox="0 0 512 512" width="512" xmlns="http://www.w3.org/2000/svg">
    <path d="m163.537 402.513c-3.123-2.721-7.86-2.396-10.582.728-2.175 2.497-5.315 3.929-8.616 3.929s-6.442-1.432-8.618-3.93c-2.723-3.122-7.461-3.447-10.582-.726-3.122 2.722-3.448 7.459-.727 10.582 5.026 5.767 12.289 9.074 19.927 9.074 7.639 0 14.901-3.308 19.927-9.075 2.72-3.124 2.394-7.861-.729-10.582zm-73.332-11.229c-4.143 0-7.5 3.358-7.5 7.5v8.986c0 4.142 3.357 7.5 7.5 7.5s7.5-3.358 7.5-7.5v-8.986c0-4.142-3.357-7.5-7.5-7.5zm142.301-90.815h25.076c4.143 0 7.5-3.358 7.5-7.5s-3.357-7.5-7.5-7.5h-25.076c-4.143 0-7.5 3.358-7.5 7.5s3.357 7.5 7.5 7.5zm-34.034 90.815c-4.143 0-7.5 3.358-7.5 7.5v8.986c0 4.142 3.357 7.5 7.5 7.5s7.5-3.358 7.5-7.5v-8.986c0-4.142-3.358-7.5-7.5-7.5zm246.984-293.347v-23.971h7.395c9.22 0 16.72-7.5 16.72-16.72v-21.803c0-8.54-3.08-16.79-8.674-23.232-2.716-3.128-7.453-3.46-10.581-.746-3.127 2.716-3.461 7.453-.745 10.581 3.225 3.713 5 8.471 5 13.397v21.803c0 .949-.772 1.72-1.72 1.72h-19.282v-16.848c0-4.142-3.357-7.5-7.5-7.5s-7.5 3.358-7.5 7.5v16.848h-43.407v-16.848c0-4.142-3.357-7.5-7.5-7.5s-7.5 3.358-7.5 7.5v16.848h-43.407v-16.848c0-4.142-3.357-7.5-7.5-7.5s-7.5 3.358-7.5 7.5v16.848h-19.282c-.948 0-1.72-.771-1.72-1.72v-21.803c0-11.273 9.171-20.443 20.442-20.443h121.494c4.143 0 7.5-3.358 7.5-7.5s-3.357-7.5-7.5-7.5h-121.495c-19.543 0-35.442 15.899-35.442 35.443v21.803c0 9.22 7.5 16.72 16.72 16.72h7.395v23.994c-13.571 2.146-26.473 7.807-37.218 16.49-11.675 9.435-20.428 22.092-25.189 36.199-1.757-.402-3.529-.762-5.327-1.044v-23.972h7.396c9.22 0 16.72-7.501 16.72-16.72v-21.801c0-19.543-15.899-35.443-35.442-35.443h-132.935c-19.543 0-35.442 15.899-35.442 35.443v21.803c0 9.22 7.5 16.72 16.72 16.72h7.395v23.972c-37.65 5.9-66.545 38.552-66.545 77.832v241.911c0 20.88 14.922 38.564 35.48 42.049 4.087.695 7.955-2.058 8.647-6.141.692-4.084-2.058-7.956-6.142-8.648-13.318-2.258-22.985-13.723-22.985-27.26v-2.739h258.677v2.739c0 15.247-12.404 27.65-27.65 27.65h-173.705c-4.143 0-7.5 3.358-7.5 7.5s3.357 7.5 7.5 7.5h173.704c23.518 0 42.65-19.133 42.65-42.65v-9.019h180.674c23.518 0 42.65-19.133 42.65-42.651v-241.91c0-39.28-28.895-71.932-66.544-77.833zm-140.589-23.971h125.589v23.014h-125.589zm-245.718 36.669c-.948 0-1.72-.772-1.72-1.72v-21.803c0-11.272 9.171-20.443 20.442-20.443h132.934c11.271 0 20.442 9.171 20.442 20.443v21.803c0 .949-.771 1.72-1.72 1.72h-19.282v-16.848c0-4.142-3.357-7.5-7.5-7.5s-7.5 3.358-7.5 7.5v16.848h-43.407v-16.848c0-4.142-3.357-7.5-7.5-7.5s-7.5 3.358-7.5 7.5v16.848h-43.406v-16.848c0-4.142-3.357-7.5-7.5-7.5s-7.5 3.358-7.5 7.5v16.848zm147.984 15v23.015h-125.589v-23.015zm66.544 325.975h-258.677v-200.256h57.267v57.072c0 39.741 32.331 72.072 72.072 72.072s72.072-32.332 72.072-72.072v-57.072h57.266zm-186.41-143.185v-57.072h114.145v57.072c0 31.47-25.603 57.072-57.072 57.072-31.471.001-57.073-25.602-57.073-57.072zm186.41-72.071h-258.677v-8.915c0-35.173 28.615-63.789 63.789-63.789h131.099c35.174 0 63.789 28.616 63.789 63.789zm223.323 181.326c0 15.247-12.404 27.651-27.65 27.651h-180.673v-30.39h208.323zm0-17.739h-208.323v-172.502c0-9.766-1.799-19.117-5.062-27.755h11.974v57.072c0 39.741 32.331 72.072 72.072 72.072s72.072-32.332 72.072-72.072v-57.072h57.267zm-186.411-143.185v-57.072h114.145v57.072c0 31.47-25.603 57.072-57.072 57.072-31.471.001-57.073-25.602-57.073-57.072zm186.411-72.072h-220.985c-8.312-12.811-20.234-23.063-34.324-29.305 3.858-11.398 10.941-21.628 20.387-29.261 10.357-8.371 22.683-13.155 35.863-13.991.073-.006.147-.006.219-.014 1.31-.079 2.626-.132 3.952-.132h131.099c35.174 0 63.789 28.616 63.789 63.79zm-440.829 100.785h-25.075c-4.143 0-7.5 3.358-7.5 7.5s3.357 7.5 7.5 7.5h25.075c4.143 0 7.5-3.358 7.5-7.5s-3.358-7.5-7.5-7.5zm286.173-17.789h-9.451c-4.143 0-7.5 3.358-7.5 7.5s3.357 7.5 7.5 7.5h9.451c9.947 0 18.04-8.093 18.04-18.041 0-3.931-1.265-7.574-3.407-10.54 2.143-2.967 3.407-6.609 3.407-10.541 0-9.948-8.093-18.04-18.04-18.04h-9.451c-4.143 0-7.5 3.358-7.5 7.5s3.357 7.5 7.5 7.5h9.451c1.677 0 3.04 1.364 3.04 3.04 0 1.677-1.363 3.041-3.04 3.041h-4.659c-4.143 0-7.5 3.358-7.5 7.5s3.357 7.5 7.5 7.5h4.659c1.677 0 3.04 1.364 3.04 3.04 0 1.677-1.363 3.041-3.04 3.041zm113.485-18.88h25.075c4.143 0 7.5-3.358 7.5-7.5s-3.357-7.5-7.5-7.5h-25.075c-4.143 0-7.5 3.358-7.5 7.5s3.357 7.5 7.5 7.5zm-142.301 90.814c-4.143 0-7.5 3.358-7.5 7.5v8.986c0 4.142 3.357 7.5 7.5 7.5s7.5-3.358 7.5-7.5v-8.986c0-4.142-3.357-7.5-7.5-7.5zm73.333 11.231c-3.123-2.723-7.859-2.397-10.582.726-2.177 2.497-5.317 3.93-8.618 3.93s-6.441-1.432-8.617-3.929c-2.721-3.123-7.459-3.448-10.581-.727-3.123 2.721-3.449 7.458-.727 10.582 5.025 5.767 12.288 9.075 19.926 9.075 7.637 0 14.9-3.307 19.926-9.074 2.721-3.124 2.396-7.862-.727-10.583zm-8.983-68.165h7.357c7.739 0 14.912-3.852 19.189-10.303 7.359-11.104 7.359-25.453 0-36.556-4.275-6.452-11.449-10.304-19.189-10.304h-7.357c-6.642 0-12.047 5.404-12.047 12.047v33.068c0 6.644 5.404 12.048 12.047 12.048zm2.953-42.162h4.403c2.696 0 5.195 1.342 6.685 3.59 4.023 6.069 4.023 13.913-.001 19.982-1.489 2.248-3.988 3.59-6.685 3.59h-4.403v-27.162zm40.964 99.096c-4.143 0-7.5 3.358-7.5 7.5v8.986c0 4.142 3.357 7.5 7.5 7.5s7.5-3.358 7.5-7.5v-8.986c0-4.142-3.357-7.5-7.5-7.5zm-302.774-20.265h-9.45c-4.143 0-7.5 3.358-7.5 7.5s3.357 7.5 7.5 7.5h9.45c9.948 0 18.041-8.093 18.041-18.04 0-3.931-1.265-7.574-3.407-10.54 2.143-2.967 3.407-6.609 3.407-10.541 0-9.948-8.093-18.04-18.041-18.04h-9.45c-4.143 0-7.5 3.358-7.5 7.5s3.357 7.5 7.5 7.5h9.45c1.677 0 3.041 1.364 3.041 3.04 0 1.677-1.364 3.041-3.041 3.041h-4.659c-4.142 0-7.5 3.358-7.5 7.5s3.358 7.5 7.5 7.5h4.659c1.677 0 3.041 1.364 3.041 3.04s-1.365 3.04-3.041 3.04zm35.534 15h7.356c7.74 0 14.913-3.852 19.189-10.303 7.358-11.103 7.357-25.452 0-36.555-4.275-6.452-11.449-10.304-19.189-10.304h-7.356c-6.643 0-12.046 5.404-12.046 12.047v33.069c0 6.642 5.403 12.046 12.046 12.046zm2.954-42.162h4.402c2.696 0 5.196 1.342 6.686 3.59 4.022 6.069 4.022 13.913 0 19.982-1.489 2.248-3.988 3.59-6.686 3.59h-4.402z" />
</svg>